<svg width="14" height="25" viewBox="0 0 14 25" fill="none" xmlns="http://www.w3.org/2000/svg">
<path d="M23.767 11.4504L12.5564 0.240634C12.3963 0.0802959 12.212 0 12.0036 0C11.7951 0 11.6105 0.0802959 11.4503 0.240634L0.240634 11.4504C0.0800428 11.611 0 11.7953 0 12.0038C0 12.2123 0.0802956 12.3968 0.240634 12.557L1.44313 13.7595C1.60347 13.9198 1.78799 13.9999 1.99644 13.9999C2.20489 13.9999 2.38941 13.9198 2.54974 13.7595L12.0036 4.3058L21.4577 13.76C21.618 13.9204 21.8026 14 22.0107 14C22.2195 14 22.404 13.9199 22.5642 13.76L23.7669 12.5571C23.9272 12.3969 24.0068 12.2123 24.0068 12.0039C24.0069 11.7953 23.9273 11.6108 23.767 11.4504Z" transform="translate(14) rotate(90)" fill="white"/>
</svg>
