<svg width="21" height="30" viewBox="0 0 21 30" fill="none" xmlns="http://www.w3.org/2000/svg">
<path d="M19.0978 19.079C20.0302 17.5189 20.6487 15.5456 20.7688 13.5932C20.8449 12.34 20.5657 11.0245 19.961 9.78744C19.0124 7.84419 17.3831 6.75256 15.8091 5.69785C14.6344 4.91086 13.5243 4.16772 12.7396 3.10608L12.5988 2.91684C12.1349 2.2937 11.611 1.58749 11.5279 0.994358C11.4449 0.394305 10.9002 -0.0326557 10.3048 0.00196277C9.70009 0.0435049 9.23158 0.544318 9.23158 1.1513V21.7147C8.26458 21.1284 7.0737 20.7684 5.76974 20.7684C2.58946 20.7684 0 22.8386 0 25.3842C0 27.9298 2.58946 30 5.76974 30C8.95002 30 11.5395 27.9298 11.5395 25.3842V11.9338C13.2727 12.5962 16.1091 14.2832 16.8892 18.2228C16.7438 18.4374 16.6053 18.6682 16.4438 18.8529C16.0214 19.3306 16.0676 20.0599 16.5476 20.4799C17.023 20.9046 17.7523 20.8538 18.1747 20.3761C18.4839 20.0253 18.7586 19.6145 19.0217 19.1852C19.0494 19.1529 19.0748 19.1183 19.0978 19.079Z" fill="#6185C2"/>
</svg>
