<svg xmlns="http://www.w3.org/2000/svg" viewBox="0 0 105 27.98"><title>vk-music</title><path d="M51.81,7.4A5.75,5.75,0,0,0,48,9.13,4.4,4.4,0,0,0,44.11,7.4,4.66,4.66,0,0,0,41,8.83L40.36,7.55H37.94V20.72h3.31v-7.6a2.33,2.33,0,0,1,2.17-2.57,2.31,2.31,0,0,1,2.17,2.57v7.6H48.9v-7.6a2.2,2.2,0,1,1,4.34,0v7.6h3.31V12.83C56.55,9.28,54.67,7.4,51.81,7.4Z" transform="translate(0 0)"/><path d="M68.19,14.85a2.72,2.72,0,1,1-5.43,0V7.55H59.46V15.3c0,3.4,2.12,5.58,5.33,5.58a6.09,6.09,0,0,0,3.7-1.43l0.59,1.28H71.5V7.55H68.19v7.3Z" transform="translate(0 0)"/><path d="M77.47,11.45A1.4,1.4,0,0,1,79,10.16a1.9,1.9,0,0,1,1.88,1.28h3.16c-0.25-2.27-2-4-5.13-4-2.86,0-4.74,1.83-4.74,4,0,4.59,6.71,3.4,6.71,5.28A1.67,1.67,0,0,1,79,18.16a1.92,1.92,0,0,1-2-1.58H73.87c0.3,2.57,2,4.29,5.43,4.29,3,0,4.88-1.83,4.88-4C84.18,12.19,77.47,13.32,77.47,11.45Z" transform="translate(0 0)"/><rect x="86.64" y="7.55" width="3.31" height="13.17"/><path d="M88.37,2.07A1.91,1.91,0,0,0,86.5,3.95a1.88,1.88,0,1,0,3.75,0A1.91,1.91,0,0,0,88.37,2.07Z" transform="translate(0 0)"/><path d="M98.83,17.81a3.33,3.33,0,0,1-3.31-3.6,3.33,3.33,0,0,1,3.31-3.6,3.06,3.06,0,0,1,2.86,1.88H105a6.47,6.47,0,0,0-6.17-5,6.71,6.71,0,0,0,0,13.42A6.52,6.52,0,0,0,105,15.94h-3.28A3.06,3.06,0,0,1,98.83,17.81Z" transform="translate(0 0)"/><path d="M105,15.94v-0.1l0,0.1h0Z" transform="translate(0 0)"/><path d="M18.26,0H9.72C1.88,0,0,1.87,0,9.67v8.59C0,26.1,1.83,28,9.67,28h8.59C26.1,28,28,26.15,28,18.31V9.72C28,1.87,26.05,0,18.26,0ZM22.5,20.13h-2c-0.74,0-1-.64-2.37-2-1.18-1.18-1.73-1.33-2-1.33s-0.54.1-.54,0.69v1.83c0,0.49-.2.79-1.48,0.79a7.94,7.94,0,0,1-6.22-3.75c-2.52-3.55-3.21-6.22-3.21-6.76A0.55,0.55,0,0,1,5.33,9h2a0.9,0.9,0,0,1,.94.79c1,2.91,2.66,5.43,3.36,5.43,0.3,0,.39-0.15.39-0.79v-3c0-1.38-.79-1.48-0.79-2a0.51,0.51,0,0,1,.54-0.49H15c0.44,0,.59.2,0.59,0.74v4c0,0.44.15,0.59,0.3,0.59a1.5,1.5,0,0,0,.94-0.64,17.49,17.49,0,0,0,2.52-4.19,0.89,0.89,0,0,1,.89-0.59h2c0.64,0,.79.3,0.64,0.74-0.25,1.18-2.71,4.69-2.81,4.88a0.62,0.62,0,0,0,0,.89c0.2,0.3.89,0.94,1.38,1.48a8.56,8.56,0,0,1,1.73,2.37C23.39,19.84,23.09,20.13,22.5,20.13Z" transform="translate(0 0)"/></svg>