<svg width="15" height="15" viewBox="0 0 15 15" fill="none" xmlns="http://www.w3.org/2000/svg">
<path d="M14.6194 0.673628C14.3525 0.563146 14.1247 0.60857 13.9358 0.810412L12.6662 2.07031C11.9696 1.41272 11.1737 0.903312 10.2785 0.541974C9.38331 0.180669 8.45715 0 7.5001 0C6.4845 0 5.51445 0.198661 4.58996 0.595744C3.66541 0.99286 2.86786 1.52662 2.19731 2.19721C1.52673 2.86786 0.992826 3.66531 0.595709 4.58979C0.198627 5.51435 0 6.48426 0 7.5C0 8.51544 0.198627 9.48558 0.595744 10.4101C0.992963 11.3347 1.52673 12.1322 2.19735 12.8028C2.86789 13.4732 3.66545 14.007 4.59 14.4042C5.51448 14.8013 6.48453 15 7.50014 15C8.61986 15 9.68462 14.764 10.6936 14.292C11.7026 13.8201 12.562 13.1543 13.2718 12.2949C13.3238 12.2298 13.3483 12.1565 13.3449 12.0752C13.3419 11.9938 13.3107 11.9271 13.2522 11.875L11.9145 10.5274C11.8426 10.4688 11.7615 10.4396 11.6703 10.4396C11.5662 10.4526 11.4913 10.4918 11.4457 10.5569C10.9704 11.1755 10.3878 11.6539 9.69762 11.9927C9.00761 12.3311 8.27518 12.5003 7.50041 12.5003C6.82343 12.5003 6.17724 12.3684 5.56199 12.1047C4.94669 11.8411 4.41439 11.4847 3.96525 11.0354C3.51614 10.5862 3.15969 10.0541 2.89598 9.43869C2.63233 8.82345 2.50047 8.17742 2.50047 7.50027C2.50047 6.82319 2.63243 6.17686 2.89598 5.56176C3.15959 4.94658 3.51601 4.41429 3.96525 3.96515C4.41453 3.5159 4.94669 3.15946 5.56199 2.89574C6.1771 2.63212 6.82343 2.50023 7.50041 2.50023C8.80905 2.50023 9.94519 2.94622 10.9088 3.83818L9.5608 5.18564C9.35889 5.38098 9.31347 5.60564 9.42395 5.85951C9.5348 6.11994 9.72686 6.25012 10.0004 6.25012H14.3754C14.5447 6.25012 14.6911 6.18832 14.8149 6.0646C14.9385 5.94091 15.0003 5.79445 15.0003 5.62517V1.25008C15.0002 0.976716 14.8736 0.784656 14.6194 0.673628Z" fill="white"/>
</svg>
