<svg width="34" height="30" viewBox="0 0 34 30" fill="none" xmlns="http://www.w3.org/2000/svg">
<path d="M23.8057 22.919C23.192 22.8222 23.1779 21.1487 23.1779 21.1487C23.1779 21.1487 24.9817 19.3785 25.3747 16.9981C26.4322 16.9981 27.0852 14.4672 26.0277 13.5769C26.0719 12.6394 27.387 6.21876 20.729 6.21876C14.0709 6.21876 15.3861 12.6394 15.4301 13.5768C14.3725 14.4671 15.0257 16.998 16.0832 16.998C16.4762 19.3785 18.2801 21.1487 18.2801 21.1487C18.2801 21.1487 18.2659 22.8221 17.6521 22.919C15.6749 23.2309 8.29152 26.4596 8.29152 30H20.7289H33.1663C33.1664 26.4595 25.7831 23.2308 23.8057 22.919ZM11.1435 23.4837C12.5717 22.6042 14.3056 21.7895 15.7278 21.2999C15.2177 20.5733 14.6495 19.5853 14.2921 18.4152C13.7931 18.0082 13.387 17.4263 13.1261 16.7115C12.8649 15.9956 12.7659 15.1941 12.8473 14.4545C12.9057 13.9235 13.0572 13.4288 13.2894 12.9942C13.1485 11.4853 13.0493 8.52335 14.9882 6.3631C15.74 5.52531 16.6904 4.9231 17.8286 4.55949C17.6254 2.46186 16.5603 0 12.4374 0C5.77935 0 7.09454 6.42068 7.13857 7.35803C6.08096 8.24842 6.7341 10.7792 7.79159 10.7792C8.18455 13.1596 9.98841 14.9299 9.98841 14.9299C9.98841 14.9299 9.97442 16.6033 9.36057 16.7001C7.38334 17.0121 0 20.2409 0 23.7813H10.6753C10.8278 23.6817 10.9832 23.5824 11.1435 23.4837Z" fill="#E8A427"/>
</svg>
