<svg width="35" height="35" viewBox="0 0 35 35" fill="none" xmlns="http://www.w3.org/2000/svg">
<path d="M3.63833 1.6275V0.780255C3.63833 0.349331 3.289 0 2.85807 0C2.42715 0 2.07782 0.349331 2.07782 0.780255V1.6275C0.880127 1.96791 0 3.07086 0 4.37634C0 5.68182 0.880127 6.78476 2.07782 7.12518V19.4876C2.07782 19.9186 2.42715 20.2679 2.85807 20.2679C3.289 20.2679 3.63833 19.9186 3.63833 19.4876V7.12518C4.83602 6.78476 5.71615 5.68182 5.71615 4.37634C5.71615 3.07086 4.83602 1.9678 3.63833 1.6275ZM2.85807 5.67379C2.14258 5.67379 1.56051 5.09172 1.56051 4.37623C1.56051 3.66073 2.14258 3.07866 2.85807 3.07866C3.57357 3.07866 4.15564 3.66073 4.15564 4.37623C4.15564 5.09172 3.57357 5.67379 2.85807 5.67379Z" transform="translate(3.91342 7.36606)" fill="white"/>
<path d="M3.63833 12.8501V0.780255C3.63833 0.349331 3.289 0 2.85807 0C2.42715 0 2.07782 0.349331 2.07782 0.780255V12.8501C0.880128 13.1905 0 14.2935 0 15.599C0 16.9044 0.880128 18.0074 2.07782 18.3478V19.4876C2.07782 19.9186 2.42715 20.2679 2.85807 20.2679C3.289 20.2679 3.63833 19.9186 3.63833 19.4876V18.3478C4.83602 18.0074 5.71615 16.9044 5.71615 15.599C5.71615 14.2935 4.83602 13.1905 3.63833 12.8501ZM2.85807 16.8965C2.14258 16.8965 1.56051 16.3145 1.56051 15.599C1.56051 14.8835 2.14258 14.3014 2.85807 14.3014C3.57357 14.3014 4.15564 14.8835 4.15564 15.599C4.15564 16.3145 3.57357 16.8965 2.85807 16.8965Z" transform="translate(14.6419 7.36606)" fill="white"/>
<path d="M3.63833 6.06269V0.780255C3.63833 0.349331 3.289 0 2.85807 0C2.42715 0 2.07782 0.349331 2.07782 0.780255V6.06269C0.880128 6.40322 0 7.50605 0 8.81142C0 10.1169 0.880128 11.2198 2.07782 11.5603V19.4876C2.07782 19.9186 2.42715 20.2679 2.85807 20.2679C3.289 20.2679 3.63833 19.9186 3.63833 19.4876V11.5603C4.83602 11.2198 5.71615 10.1169 5.71615 8.81142C5.71615 7.50605 4.83602 6.40311 3.63833 6.06269ZM2.85807 10.1089C2.14258 10.1089 1.56051 9.5268 1.56051 8.81131C1.56051 8.09592 2.14258 7.51385 2.85807 7.51385C3.57357 7.51385 4.15564 8.09592 4.15564 8.81131C4.15564 9.52691 3.57357 10.1089 2.85807 10.1089Z" transform="translate(25.3704 7.36606)" fill="white"/>
<path d="M32.2391 0H2.76088C1.23849 0 0 1.23314 0 2.74861V32.2514C0 33.767 1.23849 35 2.76088 35H32.2392C33.7615 35 35 33.767 35 32.2514V2.74861C35 1.23314 33.7615 0 32.2391 0ZM33.4395 32.2514C33.4395 32.9066 32.901 33.4395 32.2391 33.4395H2.76088C2.099 33.4395 1.56051 32.9066 1.56051 32.2514V2.74861C1.56051 2.09342 2.099 1.56051 2.76088 1.56051H32.2392C32.901 1.56051 33.4395 2.09342 33.4395 2.74861V32.2514Z" fill="white"/>
</svg>
