<svg width="33" height="35" viewBox="0 0 33 35" fill="none" xmlns="http://www.w3.org/2000/svg">
<path d="M27.466 8.72812C24.5494 7.41919 20.6888 6.69835 16.5955 6.69835C15.3009 6.69835 14.0297 6.77091 12.8042 6.91091L7.51529 0.293258C7.24632 -0.0434764 6.75532 -0.098317 6.4187 0.17087C6.08196 0.439834 6.02724 0.930836 6.29631 1.26746L11.0144 7.17096C9.24868 7.48139 7.61182 7.93973 6.18017 8.5335L1.25744 4.72754C0.916582 4.46404 0.426583 4.52668 0.16297 4.86766C-0.100533 5.20863 -0.0378896 5.69862 0.303081 5.96213L4.60417 9.28745C2.20077 10.6217 0.893732 12.3298 0.893732 14.175V27.5232C0.893732 29.6376 2.60951 31.5719 5.72494 32.9701C8.64153 34.279 12.5021 35 16.5954 35C20.6887 35 24.5493 34.279 27.466 32.9701C30.5814 31.5719 32.2972 29.6376 32.2972 27.5232V14.175C32.2973 12.0606 30.5816 10.1262 27.466 8.72812ZM5.96426 10.339L12.2796 15.2215C12.4217 15.3313 12.5896 15.3845 12.7562 15.3845C12.9895 15.3845 13.2204 15.2803 13.3741 15.0814C13.6376 14.7404 13.575 14.2504 13.234 13.9869L7.62475 9.65016C8.97971 9.16885 10.5032 8.80537 12.1334 8.57084L15.7475 13.0931C15.9016 13.2859 16.1285 13.3862 16.3576 13.3862C16.5283 13.3862 16.7003 13.3304 16.8441 13.2155C17.1807 12.9465 17.2356 12.4555 16.9665 12.1189L13.967 8.36564C14.825 8.29597 15.7034 8.25874 16.5955 8.25874C20.4735 8.25874 24.1071 8.93099 26.8272 10.1516C29.3119 11.2667 30.7368 12.733 30.7368 14.1748C30.7368 15.6167 29.3119 17.0832 26.8272 18.1983C24.1072 19.4189 20.4735 20.0912 16.5955 20.0912C12.7176 20.0912 9.08382 19.4189 6.36386 18.1983C3.87931 17.0832 2.45435 15.6167 2.45435 14.1748C2.45424 12.8124 3.7275 11.4281 5.96426 10.339ZM26.8271 31.5465C24.107 32.7673 20.4733 33.4395 16.5954 33.4395C12.7175 33.4395 9.08382 32.7673 6.36375 31.5465C3.8792 30.4314 2.45424 28.965 2.45424 27.5232V22.2734C5.55184 24.4635 10.7784 25.784 16.5954 25.784C22.335 25.784 27.6416 24.4346 30.7367 22.2658V27.5231C30.7368 28.9649 29.3118 30.4314 26.8271 31.5465ZM30.7368 20.2637C28.2042 22.6744 22.6955 24.2235 16.5955 24.2235C10.5139 24.2235 4.98839 22.6719 2.45435 20.2635V17.4968C3.25611 18.2887 4.35515 19.0073 5.72506 19.622C8.64153 20.9309 12.5022 21.6518 16.5955 21.6518C20.6888 21.6518 24.5494 20.9309 27.466 19.622C28.836 19.0072 29.9349 18.2886 30.7368 17.4968V20.2637Z" fill="white"/>
</svg>
