<svg width="42" height="42" viewBox="0 0 42 42" fill="none" xmlns="http://www.w3.org/2000/svg">
<path d="M0.100566 0.100471L0.100535 0.100501C-0.20017 0.401309 -0.200192 0.888813 0.100551 1.18956L6.20689 7.29598L6.20692 7.29601C6.35729 7.44628 6.55454 7.52146 6.75146 7.52146C6.9483 7.52146 7.14563 7.44629 7.29601 7.29601L7.29606 7.29596C7.59676 6.99515 7.59678 6.50765 7.29604 6.20691L1.18962 0.100486L1.18959 0.100456C0.888891 -0.200036 0.401412 -0.200273 0.100566 0.100471Z" transform="translate(7.23169 27.3708)" fill="white" stroke="white" stroke-width="0.25"/>
<mask id="path-2-outside-1" maskUnits="userSpaceOnUse" x="-1" y="-1" width="42" height="42" fill="black">
<rect fill="white" x="-1" y="-1" width="42" height="42"/>
<path d="M39.9436 4.59543C39.9609 4.52094 40.3488 2.75425 38.7969 1.20222C37.2448 -0.349711 35.4782 0.0379291 35.4037 0.0554748C35.2862 0.0826535 35.1787 0.142429 35.0933 0.227664L34.8456 0.475368L34.6936 0.323305C34.4416 0.0714724 34.0333 0.0713864 33.7814 0.323391C33.5294 0.575309 33.5294 0.983763 33.7814 1.2356L33.9334 1.38757L33.2466 2.07444L33.0945 1.92237C32.8425 1.67054 32.4342 1.67045 32.1823 1.92246C31.9304 2.17438 31.9304 2.58283 32.1824 2.83466L32.3344 2.98664L31.6475 3.6735L31.4954 3.52144C31.2434 3.26961 30.8351 3.26961 30.5831 3.52144C30.3312 3.77344 30.3312 4.18181 30.5831 4.43373L30.8626 4.71317L29.8977 6.64303L22.9511 13.3299C21.5283 12.2321 18.7173 10.6384 15.7894 12.2057C13.8377 13.2477 13.318 14.5755 12.8596 15.7469C12.4943 16.6804 12.1788 17.4864 11.1915 18.218C10.7323 18.5579 9.88454 18.7269 8.90284 18.9226C6.45031 19.4115 3.09151 20.081 0.884366 24.1609C-1.74508 29.0224 2.15385 33.7347 3.95426 35.5371L4.46507 36.0471C5.83363 37.4155 8.88633 40 12.4102 40C13.5188 39.9999 14.6742 39.744 15.8383 39.1141C19.9184 36.9071 20.5879 33.549 21.0767 31.0971C21.2724 30.1157 21.4414 29.268 21.7812 28.809C22.5126 27.8215 23.3189 27.5058 24.2524 27.1404C25.4241 26.6817 26.7522 26.1618 27.7933 24.2107C29.3607 21.2823 27.7665 18.4712 26.6685 17.0484L33.3543 10.1029L35.2862 9.13693L35.5652 9.41585C35.6912 9.54177 35.8562 9.60473 36.0213 9.60473C36.1863 9.60473 36.3515 9.54177 36.4775 9.41577C36.7294 9.16385 36.7294 8.75539 36.4774 8.50356L36.3254 8.35158L37.0123 7.66472L37.1642 7.8167C37.2902 7.94261 37.4554 8.00557 37.6204 8.00557C37.7855 8.00557 37.9506 7.94261 38.0766 7.8167C38.3285 7.56469 38.3285 7.15633 38.0766 6.90441L37.9246 6.75243L38.6114 6.06565L38.7634 6.21763C38.8894 6.34355 39.0545 6.4065 39.2196 6.4065C39.3846 6.4065 39.5498 6.34355 39.6758 6.21763C39.9277 5.96563 39.9277 5.55726 39.6758 5.30534L39.5238 5.15336L39.7714 4.90574C39.8566 4.82042 39.9164 4.71291 39.9436 4.59543ZM26.6555 23.6027C25.8383 25.1342 24.8854 25.5073 23.7822 25.9392C22.8047 26.3218 21.6968 26.7556 20.7444 28.0415C20.2327 28.7327 20.0375 29.7115 19.8115 30.845C19.3482 33.1688 18.7716 36.0607 15.2244 37.9796C11.1232 40.1989 6.97195 36.7294 5.37822 35.1358L4.86492 34.6234C3.27075 33.0276 -0.19762 28.8734 2.01899 24.7749C3.93783 21.2279 6.83047 20.6514 9.15493 20.188C10.2886 19.962 11.2676 19.7669 11.9592 19.2549C13.2448 18.3022 13.6783 17.1944 14.0608 16.2172C14.4925 15.1142 14.8654 14.1616 16.3974 13.3436C18.5883 12.1708 20.7878 13.3322 22.0099 14.2359L17.8288 18.2607C17.7676 18.258 17.7063 18.2562 17.6447 18.2562C16.5457 18.2562 15.5135 18.6833 14.7387 19.458C13.9639 20.2311 13.5373 21.2614 13.5376 22.359C13.5377 23.4565 13.9648 24.4867 14.7389 25.2586C15.5128 26.0336 16.5437 26.4605 17.6416 26.4605C18.7396 26.4605 19.77 26.0335 20.5415 25.2599C21.3157 24.489 21.7428 23.4601 21.7441 22.3625C21.7441 22.2978 21.7424 22.2332 21.7396 22.1689L25.7626 17.9896C26.6666 19.2116 27.8284 21.4113 26.6555 23.6027ZM18.0003 19.5692C18.6171 19.6461 19.1866 19.9215 19.6309 20.365C20.0762 20.8106 20.3528 21.3805 20.4305 21.9976C20.4312 22.0041 20.4321 22.0107 20.4329 22.0172C20.4465 22.1304 20.454 22.245 20.4539 22.361C20.4529 23.1134 20.1607 23.8181 19.6295 24.3472C19.1003 24.878 18.3942 25.1703 17.6415 25.1703C16.8885 25.1703 16.1819 24.8779 15.6508 24.346C15.1201 23.8168 14.8278 23.111 14.8277 22.3587C14.8275 21.6064 15.1196 20.9006 15.6504 20.3708C16.1821 19.8392 16.8903 19.5464 17.6447 19.5464C17.7581 19.5464 17.8702 19.5538 17.9809 19.5669C17.9873 19.5677 17.9938 19.5685 18.0003 19.5692ZM21.3862 20.6757C21.1846 20.2258 20.9016 19.8114 20.5429 19.4524C20.1851 19.0954 19.7719 18.8137 19.3232 18.613L30.4159 7.93479L32.0632 9.584L21.3862 20.6757ZM38.7066 4.14595L38.157 4.69563C38.1563 4.69623 38.1557 4.69666 38.1552 4.69717C38.1546 4.69778 38.1542 4.69838 38.1537 4.69889L36.5579 6.29469C36.5573 6.2953 36.5567 6.29573 36.5562 6.29624C36.5556 6.29684 36.5551 6.29745 36.5546 6.29796L35.0297 7.82289L33.0943 8.79057L31.2096 6.90372L32.1776 4.96784L35.8526 1.29279C36.2068 1.26682 37.073 1.30277 37.8846 2.11443C38.6982 2.92815 38.7324 3.79667 38.7066 4.14595Z"/>
</mask>
<path d="M39.9436 4.59543C39.9609 4.52094 40.3488 2.75425 38.7969 1.20222C37.2448 -0.349711 35.4782 0.0379291 35.4037 0.0554748C35.2862 0.0826535 35.1787 0.142429 35.0933 0.227664L34.8456 0.475368L34.6936 0.323305C34.4416 0.0714724 34.0333 0.0713864 33.7814 0.323391C33.5294 0.575309 33.5294 0.983763 33.7814 1.2356L33.9334 1.38757L33.2466 2.07444L33.0945 1.92237C32.8425 1.67054 32.4342 1.67045 32.1823 1.92246C31.9304 2.17438 31.9304 2.58283 32.1824 2.83466L32.3344 2.98664L31.6475 3.6735L31.4954 3.52144C31.2434 3.26961 30.8351 3.26961 30.5831 3.52144C30.3312 3.77344 30.3312 4.18181 30.5831 4.43373L30.8626 4.71317L29.8977 6.64303L22.9511 13.3299C21.5283 12.2321 18.7173 10.6384 15.7894 12.2057C13.8377 13.2477 13.318 14.5755 12.8596 15.7469C12.4943 16.6804 12.1788 17.4864 11.1915 18.218C10.7323 18.5579 9.88454 18.7269 8.90284 18.9226C6.45031 19.4115 3.09151 20.081 0.884366 24.1609C-1.74508 29.0224 2.15385 33.7347 3.95426 35.5371L4.46507 36.0471C5.83363 37.4155 8.88633 40 12.4102 40C13.5188 39.9999 14.6742 39.744 15.8383 39.1141C19.9184 36.9071 20.5879 33.549 21.0767 31.0971C21.2724 30.1157 21.4414 29.268 21.7812 28.809C22.5126 27.8215 23.3189 27.5058 24.2524 27.1404C25.4241 26.6817 26.7522 26.1618 27.7933 24.2107C29.3607 21.2823 27.7665 18.4712 26.6685 17.0484L33.3543 10.1029L35.2862 9.13693L35.5652 9.41585C35.6912 9.54177 35.8562 9.60473 36.0213 9.60473C36.1863 9.60473 36.3515 9.54177 36.4775 9.41577C36.7294 9.16385 36.7294 8.75539 36.4774 8.50356L36.3254 8.35158L37.0123 7.66472L37.1642 7.8167C37.2902 7.94261 37.4554 8.00557 37.6204 8.00557C37.7855 8.00557 37.9506 7.94261 38.0766 7.8167C38.3285 7.56469 38.3285 7.15633 38.0766 6.90441L37.9246 6.75243L38.6114 6.06565L38.7634 6.21763C38.8894 6.34355 39.0545 6.4065 39.2196 6.4065C39.3846 6.4065 39.5498 6.34355 39.6758 6.21763C39.9277 5.96563 39.9277 5.55726 39.6758 5.30534L39.5238 5.15336L39.7714 4.90574C39.8566 4.82042 39.9164 4.71291 39.9436 4.59543ZM26.6555 23.6027C25.8383 25.1342 24.8854 25.5073 23.7822 25.9392C22.8047 26.3218 21.6968 26.7556 20.7444 28.0415C20.2327 28.7327 20.0375 29.7115 19.8115 30.845C19.3482 33.1688 18.7716 36.0607 15.2244 37.9796C11.1232 40.1989 6.97195 36.7294 5.37822 35.1358L4.86492 34.6234C3.27075 33.0276 -0.19762 28.8734 2.01899 24.7749C3.93783 21.2279 6.83047 20.6514 9.15493 20.188C10.2886 19.962 11.2676 19.7669 11.9592 19.2549C13.2448 18.3022 13.6783 17.1944 14.0608 16.2172C14.4925 15.1142 14.8654 14.1616 16.3974 13.3436C18.5883 12.1708 20.7878 13.3322 22.0099 14.2359L17.8288 18.2607C17.7676 18.258 17.7063 18.2562 17.6447 18.2562C16.5457 18.2562 15.5135 18.6833 14.7387 19.458C13.9639 20.2311 13.5373 21.2614 13.5376 22.359C13.5377 23.4565 13.9648 24.4867 14.7389 25.2586C15.5128 26.0336 16.5437 26.4605 17.6416 26.4605C18.7396 26.4605 19.77 26.0335 20.5415 25.2599C21.3157 24.489 21.7428 23.4601 21.7441 22.3625C21.7441 22.2978 21.7424 22.2332 21.7396 22.1689L25.7626 17.9896C26.6666 19.2116 27.8284 21.4113 26.6555 23.6027ZM18.0003 19.5692C18.6171 19.6461 19.1866 19.9215 19.6309 20.365C20.0762 20.8106 20.3528 21.3805 20.4305 21.9976C20.4312 22.0041 20.4321 22.0107 20.4329 22.0172C20.4465 22.1304 20.454 22.245 20.4539 22.361C20.4529 23.1134 20.1607 23.8181 19.6295 24.3472C19.1003 24.878 18.3942 25.1703 17.6415 25.1703C16.8885 25.1703 16.1819 24.8779 15.6508 24.346C15.1201 23.8168 14.8278 23.111 14.8277 22.3587C14.8275 21.6064 15.1196 20.9006 15.6504 20.3708C16.1821 19.8392 16.8903 19.5464 17.6447 19.5464C17.7581 19.5464 17.8702 19.5538 17.9809 19.5669C17.9873 19.5677 17.9938 19.5685 18.0003 19.5692ZM21.3862 20.6757C21.1846 20.2258 20.9016 19.8114 20.5429 19.4524C20.1851 19.0954 19.7719 18.8137 19.3232 18.613L30.4159 7.93479L32.0632 9.584L21.3862 20.6757ZM38.7066 4.14595L38.157 4.69563C38.1563 4.69623 38.1557 4.69666 38.1552 4.69717C38.1546 4.69778 38.1542 4.69838 38.1537 4.69889L36.5579 6.29469C36.5573 6.2953 36.5567 6.29573 36.5562 6.29624C36.5556 6.29684 36.5551 6.29745 36.5546 6.29796L35.0297 7.82289L33.0943 8.79057L31.2096 6.90372L32.1776 4.96784L35.8526 1.29279C36.2068 1.26682 37.073 1.30277 37.8846 2.11443C38.6982 2.92815 38.7324 3.79667 38.7066 4.14595Z" transform="translate(1 1)" fill="white"/>
<path d="M39.9436 4.59543C39.9609 4.52094 40.3488 2.75425 38.7969 1.20222C37.2448 -0.349711 35.4782 0.0379291 35.4037 0.0554748C35.2862 0.0826535 35.1787 0.142429 35.0933 0.227664L34.8456 0.475368L34.6936 0.323305C34.4416 0.0714724 34.0333 0.0713864 33.7814 0.323391C33.5294 0.575309 33.5294 0.983763 33.7814 1.2356L33.9334 1.38757L33.2466 2.07444L33.0945 1.92237C32.8425 1.67054 32.4342 1.67045 32.1823 1.92246C31.9304 2.17438 31.9304 2.58283 32.1824 2.83466L32.3344 2.98664L31.6475 3.6735L31.4954 3.52144C31.2434 3.26961 30.8351 3.26961 30.5831 3.52144C30.3312 3.77344 30.3312 4.18181 30.5831 4.43373L30.8626 4.71317L29.8977 6.64303L22.9511 13.3299C21.5283 12.2321 18.7173 10.6384 15.7894 12.2057C13.8377 13.2477 13.318 14.5755 12.8596 15.7469C12.4943 16.6804 12.1788 17.4864 11.1915 18.218C10.7323 18.5579 9.88454 18.7269 8.90284 18.9226C6.45031 19.4115 3.09151 20.081 0.884366 24.1609C-1.74508 29.0224 2.15385 33.7347 3.95426 35.5371L4.46507 36.0471C5.83363 37.4155 8.88633 40 12.4102 40C13.5188 39.9999 14.6742 39.744 15.8383 39.1141C19.9184 36.9071 20.5879 33.549 21.0767 31.0971C21.2724 30.1157 21.4414 29.268 21.7812 28.809C22.5126 27.8215 23.3189 27.5058 24.2524 27.1404C25.4241 26.6817 26.7522 26.1618 27.7933 24.2107C29.3607 21.2823 27.7665 18.4712 26.6685 17.0484L33.3543 10.1029L35.2862 9.13693L35.5652 9.41585C35.6912 9.54177 35.8562 9.60473 36.0213 9.60473C36.1863 9.60473 36.3515 9.54177 36.4775 9.41577C36.7294 9.16385 36.7294 8.75539 36.4774 8.50356L36.3254 8.35158L37.0123 7.66472L37.1642 7.8167C37.2902 7.94261 37.4554 8.00557 37.6204 8.00557C37.7855 8.00557 37.9506 7.94261 38.0766 7.8167C38.3285 7.56469 38.3285 7.15633 38.0766 6.90441L37.9246 6.75243L38.6114 6.06565L38.7634 6.21763C38.8894 6.34355 39.0545 6.4065 39.2196 6.4065C39.3846 6.4065 39.5498 6.34355 39.6758 6.21763C39.9277 5.96563 39.9277 5.55726 39.6758 5.30534L39.5238 5.15336L39.7714 4.90574C39.8566 4.82042 39.9164 4.71291 39.9436 4.59543ZM26.6555 23.6027C25.8383 25.1342 24.8854 25.5073 23.7822 25.9392C22.8047 26.3218 21.6968 26.7556 20.7444 28.0415C20.2327 28.7327 20.0375 29.7115 19.8115 30.845C19.3482 33.1688 18.7716 36.0607 15.2244 37.9796C11.1232 40.1989 6.97195 36.7294 5.37822 35.1358L4.86492 34.6234C3.27075 33.0276 -0.19762 28.8734 2.01899 24.7749C3.93783 21.2279 6.83047 20.6514 9.15493 20.188C10.2886 19.962 11.2676 19.7669 11.9592 19.2549C13.2448 18.3022 13.6783 17.1944 14.0608 16.2172C14.4925 15.1142 14.8654 14.1616 16.3974 13.3436C18.5883 12.1708 20.7878 13.3322 22.0099 14.2359L17.8288 18.2607C17.7676 18.258 17.7063 18.2562 17.6447 18.2562C16.5457 18.2562 15.5135 18.6833 14.7387 19.458C13.9639 20.2311 13.5373 21.2614 13.5376 22.359C13.5377 23.4565 13.9648 24.4867 14.7389 25.2586C15.5128 26.0336 16.5437 26.4605 17.6416 26.4605C18.7396 26.4605 19.77 26.0335 20.5415 25.2599C21.3157 24.489 21.7428 23.4601 21.7441 22.3625C21.7441 22.2978 21.7424 22.2332 21.7396 22.1689L25.7626 17.9896C26.6666 19.2116 27.8284 21.4113 26.6555 23.6027ZM18.0003 19.5692C18.6171 19.6461 19.1866 19.9215 19.6309 20.365C20.0762 20.8106 20.3528 21.3805 20.4305 21.9976C20.4312 22.0041 20.4321 22.0107 20.4329 22.0172C20.4465 22.1304 20.454 22.245 20.4539 22.361C20.4529 23.1134 20.1607 23.8181 19.6295 24.3472C19.1003 24.878 18.3942 25.1703 17.6415 25.1703C16.8885 25.1703 16.1819 24.8779 15.6508 24.346C15.1201 23.8168 14.8278 23.111 14.8277 22.3587C14.8275 21.6064 15.1196 20.9006 15.6504 20.3708C16.1821 19.8392 16.8903 19.5464 17.6447 19.5464C17.7581 19.5464 17.8702 19.5538 17.9809 19.5669C17.9873 19.5677 17.9938 19.5685 18.0003 19.5692ZM21.3862 20.6757C21.1846 20.2258 20.9016 19.8114 20.5429 19.4524C20.1851 19.0954 19.7719 18.8137 19.3232 18.613L30.4159 7.93479L32.0632 9.584L21.3862 20.6757ZM38.7066 4.14595L38.157 4.69563C38.1563 4.69623 38.1557 4.69666 38.1552 4.69717C38.1546 4.69778 38.1542 4.69838 38.1537 4.69889L36.5579 6.29469C36.5573 6.2953 36.5567 6.29573 36.5562 6.29624C36.5556 6.29684 36.5551 6.29745 36.5546 6.29796L35.0297 7.82289L33.0943 8.79057L31.2096 6.90372L32.1776 4.96784L35.8526 1.29279C36.2068 1.26682 37.073 1.30277 37.8846 2.11443C38.6982 2.92815 38.7324 3.79667 38.7066 4.14595Z" transform="translate(1 1)" stroke="white" stroke-width="0.5" mask="url(#path-2-outside-1)"/>
</svg>
