<svg width="35" height="29" viewBox="0 0 35 29" fill="none" xmlns="http://www.w3.org/2000/svg">
<path d="M34.2391 10.6522C34.6591 10.6522 35 10.3113 35 9.8913C35 9.4713 34.6591 9.13043 34.2391 9.13043H31.9565V4.56522H34.2391C34.6591 4.56522 35 4.22435 35 3.80435C35 3.38435 34.6591 3.04348 34.2391 3.04348H31.9565V0.76087C31.9565 0.34087 31.6157 0 31.1957 0H25.1087C24.6887 0 24.3478 0.34087 24.3478 0.76087V3.04348H21.3043V0.76087C21.3043 0.34087 20.9635 0 20.5435 0H14.4565C14.0365 0 13.6957 0.34087 13.6957 0.76087V3.04348H10.6522V0.76087C10.6522 0.34087 10.3113 0 9.8913 0H3.80435C3.38435 0 3.04348 0.34087 3.04348 0.76087V3.04348H0.76087C0.34087 3.04348 0 3.38435 0 3.80435C0 4.22435 0.34087 4.56522 0.76087 4.56522H3.04348V9.13043H0.76087C0.34087 9.13043 0 9.4713 0 9.8913C0 10.3113 0.34087 10.6522 0.76087 10.6522H3.04348V15.2174H0.76087C0.34087 15.2174 0 15.5583 0 15.9783C0 16.3983 0.34087 16.7391 0.76087 16.7391H3.04348V22.0652C3.04348 22.4852 3.38435 22.8261 3.80435 22.8261H9.8913C10.3113 22.8261 10.6522 22.4852 10.6522 22.0652V16.7391H13.6957V25.1087C13.6957 25.5287 14.0365 25.8696 14.4565 25.8696H20.5435C20.9635 25.8696 21.3043 25.5287 21.3043 25.1087V16.7391H24.3478V28.1522C24.3478 28.5722 24.6887 28.913 25.1087 28.913H31.1957C31.6157 28.913 31.9565 28.5722 31.9565 28.1522V16.7391H34.2391C34.6591 16.7391 35 16.3983 35 15.9783C35 15.5583 34.6591 15.2174 34.2391 15.2174H31.9565V10.6522H34.2391ZM9.13043 21.3043H4.56522V1.52174H9.13043V21.3043ZM13.6957 15.2174H10.6522V10.6522H13.6957V15.2174ZM13.6957 9.13043H10.6522V4.56522H13.6957V9.13043ZM19.7826 24.3478H15.2174V1.52174H19.7826V24.3478ZM24.3478 15.2174H21.3043V10.6522H24.3478V15.2174ZM24.3478 9.13043H21.3043V4.56522H24.3478V9.13043ZM30.4348 27.3913H25.8696V1.52174H30.4348V27.3913Z" fill="black"/>
</svg>
