<svg width="38" height="37" viewBox="0 0 38 37" fill="none" xmlns="http://www.w3.org/2000/svg">
<path d="M2.82671 -0.125C1.19891 -0.125 -0.125 1.19934 -0.125 2.82671C-0.125 4.45409 1.19933 5.77841 2.82671 5.77841C4.45409 5.77841 5.77842 4.45409 5.77842 2.82671C5.77842 1.19934 4.4545 -0.125 2.82671 -0.125ZM2.82671 4.31041C2.00876 4.31041 1.34341 3.64469 1.34341 2.82711C1.34341 2.00955 2.00915 1.34381 2.82671 1.34381C3.64427 1.34381 4.31001 2.00955 4.31001 2.82711C4.31001 3.64469 3.64465 4.31041 2.82671 4.31041Z" transform="translate(12.9164 13.4456)" fill="white" stroke="white" stroke-width="0.25"/>
<path d="M2.01322 -0.125L2.01317 -0.125C0.834243 -0.124569 -0.125 0.83417 -0.125 2.01322C-0.125 3.19222 0.834212 4.15143 2.01322 4.15143C3.19222 4.15143 4.15143 3.19222 4.15143 2.01322C4.15143 0.834212 3.19222 -0.125 2.01322 -0.125ZM2.92671 2.01322C2.92671 2.51677 2.5169 2.9263 2.01322 2.9263C1.5096 2.9263 1.10013 2.51683 1.10013 2.01322C1.10013 1.5096 1.5096 1.10013 2.01322 1.10013C2.5169 1.10013 2.92671 1.50966 2.92671 2.01322Z" transform="translate(6.07101 14.2591)" fill="white" stroke="white" stroke-width="0.25"/>
<path d="M2.82671 -0.125C1.19891 -0.125 -0.125 1.19934 -0.125 2.82671C-0.125 4.45409 1.19933 5.77841 2.82671 5.77841C4.45408 5.77841 5.77842 4.45451 5.77842 2.82671C5.77842 1.19892 4.45449 -0.125 2.82671 -0.125ZM2.82671 4.31001C2.00874 4.31001 1.34341 3.64467 1.34341 2.82671C1.34341 2.00876 2.00913 1.34341 2.82671 1.34341C3.64427 1.34341 4.31001 2.00915 4.31001 2.82671C4.31001 3.64429 3.64465 4.31001 2.82671 4.31001Z" transform="translate(12.9164 20.6091)" fill="white" stroke="white" stroke-width="0.25"/>
<path d="M2.82671 -0.125C1.19892 -0.125 -0.125 1.19892 -0.125 2.82671C-0.125 4.45451 1.19934 5.77841 2.82671 5.77841C4.45409 5.77841 5.77842 4.45409 5.77842 2.82671C5.77842 1.19934 4.4545 -0.125 2.82671 -0.125ZM2.82671 4.31001C2.00876 4.31001 1.34341 3.64429 1.34341 2.82671C1.34341 2.00915 2.00915 1.34341 2.82671 1.34341C3.64429 1.34341 4.31001 2.00876 4.31001 2.82671C4.31001 3.64467 3.64467 4.31001 2.82671 4.31001Z" transform="translate(12.9164 27.7725)" fill="white" stroke="white" stroke-width="0.25"/>
<path d="M2.82671 -0.125C1.19891 -0.125 -0.125 1.19934 -0.125 2.82671C-0.125 4.45409 1.19933 5.77841 2.82671 5.77841C4.45409 5.77841 5.77841 4.45409 5.77841 2.82671C5.77841 1.19934 4.45451 -0.125 2.82671 -0.125ZM2.82671 4.31041C2.00876 4.31041 1.34341 3.64469 1.34341 2.82711C1.34341 2.00955 2.00915 1.34381 2.82671 1.34381C3.64427 1.34381 4.31001 2.00955 4.31001 2.82711C4.31001 3.64469 3.64465 4.31041 2.82671 4.31041Z" transform="translate(20.1631 13.4456)" fill="white" stroke="white" stroke-width="0.25"/>
<path d="M2.82671 -0.125C1.19891 -0.125 -0.125 1.19934 -0.125 2.82671C-0.125 4.45409 1.19933 5.77841 2.82671 5.77841C4.45408 5.77841 5.77841 4.4545 5.77841 2.82671C5.77841 1.19892 4.45449 -0.125 2.82671 -0.125ZM2.82671 4.31001C2.00874 4.31001 1.34341 3.64467 1.34341 2.82671C1.34341 2.00876 2.00913 1.34341 2.82671 1.34341C3.64427 1.34341 4.31001 2.00915 4.31001 2.82671C4.31001 3.64429 3.64465 4.31001 2.82671 4.31001Z" transform="translate(20.1631 20.6091)" fill="white" stroke="white" stroke-width="0.25"/>
<path d="M2.82671 -0.125C1.19892 -0.125 -0.125 1.19892 -0.125 2.82671C-0.125 4.45451 1.19934 5.77841 2.82671 5.77841C4.45409 5.77841 5.77841 4.45409 5.77841 2.82671C5.77841 1.19934 4.45451 -0.125 2.82671 -0.125ZM2.82671 4.31001C2.00876 4.31001 1.34341 3.64429 1.34341 2.82671C1.34341 2.00915 2.00915 1.34341 2.82671 1.34341C3.64429 1.34341 4.31001 2.00876 4.31001 2.82671C4.31001 3.64467 3.64467 4.31001 2.82671 4.31001Z" transform="translate(20.1631 27.7725)" fill="white" stroke="white" stroke-width="0.25"/>
<path d="M2.82671 -0.125C1.19891 -0.125 -0.125 1.19934 -0.125 2.82671C-0.125 4.45409 1.19933 5.77841 2.82671 5.77841C4.45409 5.77841 5.77841 4.45409 5.77841 2.82671C5.77841 1.19934 4.45451 -0.125 2.82671 -0.125ZM2.82671 4.31041C2.00876 4.31041 1.34341 3.64469 1.34341 2.82711C1.34341 2.00955 2.00915 1.34381 2.82671 1.34381C3.64427 1.34381 4.31001 2.00955 4.31001 2.82711C4.31001 3.64467 3.64427 4.31041 2.82671 4.31041Z" transform="translate(27.4098 13.4456)" fill="white" stroke="white" stroke-width="0.25"/>
<path d="M2.82671 -0.125C1.19891 -0.125 -0.125 1.19934 -0.125 2.82671C-0.125 4.45409 1.19933 5.77841 2.82671 5.77841C4.45408 5.77841 5.77841 4.45451 5.77841 2.82671C5.77841 1.19892 4.45449 -0.125 2.82671 -0.125ZM2.82671 4.31001C2.00874 4.31001 1.34341 3.64467 1.34341 2.82671C1.34341 2.00876 2.00913 1.34341 2.82671 1.34341C3.64427 1.34341 4.31001 2.00915 4.31001 2.82671C4.31001 3.64427 3.64427 4.31001 2.82671 4.31001Z" transform="translate(27.4098 20.6091)" fill="white" stroke="white" stroke-width="0.25"/>
<path d="M2.82671 -0.125C1.19892 -0.125 -0.125 1.19892 -0.125 2.82671C-0.125 4.45451 1.19934 5.77841 2.82671 5.77841C4.45409 5.77841 5.77841 4.45409 5.77841 2.82671C5.77841 1.19934 4.45451 -0.125 2.82671 -0.125ZM2.82671 4.31001C2.00876 4.31001 1.34341 3.64429 1.34341 2.82671C1.34341 2.00915 2.00915 1.34341 2.82671 1.34341C3.64429 1.34341 4.31001 2.00876 4.31001 2.82671C4.31001 3.64465 3.64429 4.31001 2.82671 4.31001Z" transform="translate(27.4098 27.7725)" fill="white" stroke="white" stroke-width="0.25"/>
<path d="M3.48496 2.37233H4.36393C5.14973 2.37233 5.78942 3.01146 5.78898 3.79744M3.48496 2.37233L5.66398 3.79737M3.48496 2.37233V0.527977C3.48496 0.167335 3.19263 -0.125 2.83199 -0.125C2.47135 -0.125 2.17901 0.167335 2.17901 0.527977V2.37233H1.30004C0.514176 2.37233 -0.125 3.01151 -0.125 3.79737V4.77169C-0.125 5.55756 0.514176 6.19674 1.30004 6.19674H2.17901M3.48496 2.37233L2.17901 6.07174V6.19674M5.78898 3.79744L5.66398 3.79737M5.78898 3.79744V3.79737H5.66398M5.78898 3.79744V4.77169C5.78898 5.55756 5.1498 6.19674 4.36393 6.19674H3.48496M5.66398 3.79737V4.77169C5.66398 5.48852 5.08076 6.07174 4.36393 6.07174H3.48496V6.19674M3.48496 6.19674H3.35996V12.1268C3.35996 12.4184 3.12359 12.6548 2.83199 12.6548C2.54038 12.6548 2.30401 12.4184 2.30401 12.1268V6.19674H2.17901M3.48496 6.19674V12.1268C3.48496 12.4875 3.19263 12.7798 2.83199 12.7798C2.47135 12.7798 2.17901 12.4875 2.17901 12.1268V6.19674M4.32097 3.84074V4.72833H1.34422V3.84074H4.32097Z" transform="translate(5.25183 20.2842)" fill="white" stroke="white" stroke-width="0.25"/>
<path d="M0.609204 7.49718H8.20233C8.60805 7.49718 8.93653 7.1687 8.93653 6.76298V0.609204C8.93653 0.203482 8.60805 -0.125 8.20233 -0.125H0.609204C0.203481 -0.125 -0.125 0.203482 -0.125 0.609204V6.76298C-0.125 7.16876 0.203942 7.49718 0.609204 7.49718ZM1.34341 1.34341H7.46812V6.02878H1.34341V1.34341Z" transform="translate(5.25224 4.14148)" fill="white" stroke="white" stroke-width="0.25"/>
<path d="M33.1342 -0.125H3.41804C1.46412 -0.125 -0.125 1.46454 -0.125 3.41804V31.582C-0.125 33.5359 1.46413 35.125 3.41804 35.125H33.1342C35.0881 35.125 36.6773 33.5359 36.6773 31.582V3.41804C36.6773 1.46454 35.0881 -0.125 33.1342 -0.125ZM34.8027 31.582C34.8027 32.5019 34.0541 33.2505 33.1342 33.2505H3.41804C2.49814 33.2505 1.74954 32.5019 1.74954 31.582V3.41804C1.74954 2.49814 2.49814 1.74954 3.41804 1.74954H33.1342C34.0541 1.74954 34.8027 2.49814 34.8027 3.41804V31.582Z" transform="translate(1 1)" fill="white" stroke="white" stroke-width="0.25"/>
</svg>
