<svg width="40" height="27" viewBox="0 0 40 27" fill="none" xmlns="http://www.w3.org/2000/svg">
<path d="M39.9097 13.2761C39.9127 12.9448 39.9999 3.68674 39.9996 2.09961C39.9996 0.64917 39.1838 0 38.3752 0C37.6344 0 36.94 0.540253 36.6479 1.34369C36.4756 1.79464 34.7525 4.19094 32.0086 6.4596C29.6343 8.42239 25.9209 10.7623 21.7124 10.7623H20.7845V8.72927H21.0415C21.5339 8.72927 21.9332 8.33004 21.9332 7.83755C21.9332 7.34507 21.5339 6.94584 21.0415 6.94584H18.7443C18.2518 6.94584 17.8526 7.34507 17.8526 7.83755C17.8526 8.33004 18.2518 8.72927 18.7443 8.72927H19.0012V10.7623H15.6921L15.6922 8.72927H15.9492C16.4417 8.72927 16.841 8.33004 16.841 7.83755C16.841 7.34507 16.4417 6.94584 15.9492 6.94584H13.6518C13.1593 6.94584 12.7601 7.34507 12.7601 7.83755C12.7601 8.33004 13.1593 8.72927 13.6518 8.72927H13.9089L13.9087 10.7623H10.5997V8.72927H10.8568C11.3493 8.72927 11.7485 8.33004 11.7485 7.83755C11.7485 7.34507 11.3493 6.94584 10.8568 6.94584H8.55934C8.06685 6.94584 7.66762 7.34507 7.66762 7.83755C7.66762 8.33004 8.06685 8.72927 8.55934 8.72927H8.81628V10.7623H4.56559L1.3535 8.81781C1.07809 8.65105 0.734392 8.6457 0.453884 8.80379C0.173375 8.96188 0 9.25882 0 9.58073V16.9718C0 17.2936 0.173375 17.5905 0.453884 17.7486C0.589807 17.8254 0.740762 17.8635 0.891717 17.8635C1.05184 17.8635 1.21172 17.8205 1.3535 17.7346L4.56546 15.7903H5.50521L5.50495 18.9319C5.50508 21.9359 7.94902 24.3799 10.953 24.38L18.6477 24.3799H18.648C20.101 24.3799 21.4685 23.8128 22.4984 22.7829C23.5283 21.7529 24.0955 20.3854 24.0956 18.932V16.0349C27.309 16.6835 30.0944 18.5105 32.0087 20.0932C34.7526 22.362 36.4757 24.7581 36.6478 25.2083C36.9401 26.0121 37.6343 26.5525 38.3752 26.5527C38.3753 26.5527 38.3753 26.5527 38.3753 26.5527C39.1839 26.5527 39.9997 25.9034 40 24.4528C39.9996 22.8657 39.9127 13.6075 39.9097 13.2761ZM1.78343 11.1629L3.42496 12.1566V14.396L1.78343 15.3895V11.1629ZM22.312 18.9319C22.312 19.9089 21.9302 20.8286 21.2371 21.5217C20.5441 22.2147 19.6245 22.5965 18.6477 22.5965H18.6476L10.9528 22.5966C8.93233 22.5965 7.28838 20.9525 7.28826 18.9319L7.28851 15.7903H8.7922L8.79195 18.932C8.7922 20.1236 9.7615 21.0929 10.9528 21.0929H18.6476C19.8389 21.0927 20.8083 20.1234 20.8083 18.9319V15.7904H21.7124C21.9136 15.7904 22.1132 15.7974 22.312 15.8078V18.9319ZM10.5756 15.7903L19.0249 15.7904V18.9319C19.0249 19.1401 18.8555 19.3095 18.6475 19.3095H10.9528C10.7447 19.3095 10.5754 19.1401 10.5754 18.9319L10.5756 15.7903ZM33.1736 18.7424C30.5681 16.5821 26.4645 14.007 21.7124 14.007L5.20826 14.0068V12.5457H21.7124C26.4645 12.5457 30.5681 9.97054 33.1736 7.81029C35.7435 5.6796 37.6693 3.28394 38.2161 2.19745C38.2131 4.0498 38.1271 13.174 38.1262 13.2676C38.1262 13.2732 38.1262 13.2788 38.1262 13.2844C38.1271 13.3782 38.213 22.5049 38.2163 24.3555C37.6698 23.2695 35.7438 20.8732 33.1736 18.7424Z" fill="white"/>
</svg>
