<svg width="40" height="40" viewBox="0 0 40 40" fill="none" xmlns="http://www.w3.org/2000/svg">
<path d="M6.10194 1.99846C6.36423 1.23907 6.10092 0.480837 5.46167 0.154459C5.02485 -0.0686044 3.84879 -0.359951 2.37132 1.74813C2.12978 2.0926 1.92507 2.31821 1.76468 2.46535C1.66952 2.24063 1.48315 2.05578 1.23436 1.96979C0.768366 1.80915 0.261098 2.05655 0.100459 2.52178C-0.161582 3.28104 0.10186 4.03915 0.740977 4.3654C0.884928 4.4389 1.10926 4.5198 1.39818 4.5198C1.98583 4.5198 2.841 4.18501 3.83159 2.77185C4.07299 2.42751 4.27745 2.2019 4.43784 2.05476C4.53287 2.27948 4.71924 2.46433 4.96791 2.55019C5.43352 2.71134 5.9413 2.46395 6.10194 1.99846Z" transform="translate(10.6721 19.2316)" fill="white"/>
<path d="M2.52149 0.100576C2.056 0.261345 1.80887 0.769002 1.96976 1.23449C2.05562 1.48316 2.24047 1.66953 2.46505 1.76457C2.31792 1.92496 2.09231 2.12942 1.74797 2.37083C-0.360079 3.84857 -0.0686094 5.02466 0.154578 5.46174C0.396365 5.93538 0.875097 6.20252 1.41561 6.20252C1.60466 6.20252 1.80135 6.16978 1.99804 6.10188C2.46353 5.94099 2.71054 5.43333 2.54964 4.96784C2.46365 4.7193 2.27881 4.53292 2.05435 4.43789C2.20136 4.2775 2.42696 4.07291 2.77143 3.83138C4.87948 2.35388 4.58827 1.17793 4.36521 0.740848C4.03909 0.101595 3.28073 -0.161596 2.52149 0.100576Z" transform="translate(16.4757 23.3525)" fill="white"/>
<path d="M6.71055 0.6418C6.29653 0.227903 5.74608 0 5.16059 0C4.57485 0 4.02453 0.22816 3.61064 0.642311C3.5793 0.67365 3.55038 0.707279 3.52401 0.742822L0.305116 5.1009C-0.0269904 5.48129 -0.0928515 6.02093 0.131483 6.56234C0.450722 7.33306 1.36653 8.15818 2.22132 8.15818C2.5347 8.15818 2.82757 8.05028 3.05521 7.85269L7.41399 4.63337C7.44966 4.607 7.48342 4.57796 7.51476 4.54662C8.36942 3.6922 8.36968 2.30159 7.51514 1.44628L6.71055 0.6418ZM6.28583 3.24951L2.14985 6.30425C2.04628 6.22768 1.92959 6.11087 1.85291 6.0073L4.9081 1.87088C5.00275 1.79572 5.10454 1.78349 5.16046 1.78349C5.22378 1.78349 5.34543 1.79903 5.44951 1.90311L6.25373 2.70733C6.40163 2.85524 6.41233 3.08925 6.28583 3.24951Z" transform="translate(5.62068 26.4176)" fill="white"/>
<path d="M39.8973 0.870546C39.8447 0.470281 39.5297 0.155241 39.1294 0.102628C36.7606 -0.208336 35.0463 0.189127 34.0439 1.27107C33.7599 1.57732 33.571 1.89962 33.4449 2.20217L33.2194 1.97656C32.8712 1.6284 32.3065 1.6284 31.9584 1.97644C31.6101 2.3246 31.6101 2.88933 31.9582 3.23749L32.4673 3.74655C32.278 3.92171 32.0672 4.11675 31.8372 4.32962L31.2367 3.72909C30.8887 3.38106 30.3239 3.38093 29.9757 3.72922C29.6275 4.07738 29.6275 4.64211 29.9758 4.99027L30.5285 5.54303C28.9187 7.03772 26.9075 8.91267 25.1696 10.5559C23.1914 9.17204 21.2619 8.59789 19.4248 8.8542C17.484 9.12542 15.7402 10.3051 14.2417 12.3605C13.7902 12.9799 13.9958 13.6663 14.1459 14.1676C14.3781 14.943 14.5787 15.6127 13.3213 16.7029C11.4232 18.3492 10.958 18.2589 10.1138 18.0947C9.79668 18.033 9.40203 17.9564 8.91922 17.9384C8.90406 17.9378 8.88852 17.9375 8.87234 17.9375C7.45411 17.9375 2.46181 20.1027 0.644338 24.271C-1.3097 28.7529 1.54995 32.9636 4.29317 35.7069C6.4053 37.8189 9.387 40.0003 12.693 40C13.6808 40 14.6979 39.8052 15.729 39.3557C19.945 37.5174 22.1115 32.4314 22.0616 31.0803C22.0436 30.5977 21.9669 30.2032 21.9051 29.8862C21.7409 29.042 21.6505 28.577 23.2969 26.6784C24.3871 25.4214 25.0566 25.6218 25.8319 25.8539C26.3336 26.004 27.0198 26.2093 27.6393 25.758C29.6949 24.2596 30.8745 22.516 31.1455 20.575C31.4022 18.7384 30.8279 16.8088 29.4441 14.8305C31.0871 13.0925 32.9621 11.0813 34.4569 9.47141L35.016 10.0303C35.1901 10.2043 35.4183 10.2914 35.6464 10.2914C35.8747 10.2914 36.1029 10.2043 36.277 10.0302C36.6252 9.68186 36.6252 9.11726 36.2769 8.7691L35.6703 8.16259C35.8833 7.93277 36.0782 7.72194 36.2532 7.53276L36.7682 8.04781C36.9424 8.22195 37.1705 8.30909 37.3988 8.30909C37.627 8.30909 37.8553 8.22195 38.0293 8.04793C38.3776 7.69977 38.3776 7.13504 38.0294 6.78688L37.7956 6.55312C38.1782 6.39439 38.5936 6.13616 38.9637 5.71411C39.8698 4.68135 40.1839 3.05175 39.8973 0.870546ZM29.3791 20.3286C29.1816 21.7422 28.2777 23.058 26.6913 24.2412C26.5983 24.222 26.4551 24.1791 26.3434 24.1456C25.4528 23.8789 23.7946 23.3825 21.9494 25.5102C19.8831 27.8929 19.8927 28.8817 20.1544 30.2269C20.212 30.5229 20.2664 30.8027 20.279 31.1436C20.2789 31.8595 18.4094 36.3166 14.908 37.7667C12.0768 38.9392 8.92992 37.8216 5.55408 34.4457C2.17812 31.0698 1.06078 27.9227 2.23302 25.0918C3.6831 21.5903 8.14023 19.7209 8.85323 19.7206C9.19744 19.7335 9.47706 19.7877 9.77324 19.8453C11.1189 20.1071 12.1072 20.1167 14.4895 18.0504C16.6175 16.205 16.121 14.5467 15.8542 13.6559C15.8207 13.5441 15.7779 13.4012 15.7585 13.3082C16.9417 11.722 18.2577 10.8179 19.6712 10.6205C20.9609 10.4404 22.3617 10.8428 23.8463 11.8129C23.1295 12.4981 22.5106 13.098 22.0579 13.5508L19.8608 15.7479C19.4466 16.1622 19.2186 16.7126 19.2186 17.2981C19.2186 17.8837 19.4467 18.4342 19.8606 18.8477L21.152 20.1392C21.5659 20.5532 22.1162 20.7813 22.7018 20.7813C23.2873 20.7813 23.8376 20.5532 24.2516 20.1393L26.4491 17.942C26.9017 17.4892 27.5016 16.8706 28.1867 16.1539C29.1568 17.6385 29.5592 19.0397 29.3791 20.3286ZM37.6229 4.53816C37.2294 4.98671 36.7217 5.01677 36.5983 5.01754C36.3196 4.98938 36.0749 5.09665 35.8844 5.30353C35.8045 5.39016 27.8686 14.0001 25.188 16.681L22.9906 18.8783C22.8865 18.9824 22.765 18.9979 22.7017 18.9979C22.6385 18.9979 22.5171 18.9824 22.4129 18.8782L21.1215 17.5868C21.0175 17.4827 21.0019 17.3613 21.0019 17.2982C21.0019 17.2351 21.0175 17.1135 21.1218 17.0093L23.3188 14.8122C25.9998 12.1312 34.6094 4.19548 34.696 4.1156C34.9032 3.92464 35.011 3.6789 34.9817 3.39953C34.9807 3.32959 34.9895 2.85926 35.3703 2.46358C35.8682 1.94624 36.8507 1.71337 38.1987 1.8014C38.3033 3.3794 37.9568 4.15764 37.6229 4.53816Z" fill="white"/>
</svg>
