<svg width="37" height="35" viewBox="0 0 37 35" fill="none" xmlns="http://www.w3.org/2000/svg">
<path d="M2.82671 0C1.26796 0 0 1.26836 0 2.82671C0 4.38505 1.26836 5.65341 2.82671 5.65341C4.38505 5.65341 5.65342 4.38505 5.65342 2.82671C5.65342 1.26836 4.38546 0 2.82671 0ZM2.82671 4.43541C1.93971 4.43541 1.21841 3.71371 1.21841 2.82711C1.21841 1.94052 1.94011 1.21881 2.82671 1.21881C3.7133 1.21881 4.43501 1.94052 4.43501 2.82711C4.43501 3.71371 3.71371 4.43541 2.82671 4.43541Z" transform="translate(11.9164 12.4456)" fill="black"/>
<path d="M0 2.01322C0 3.12319 0.903247 4.02643 2.01322 4.02643C3.12319 4.02643 4.02643 3.12319 4.02643 2.01322C4.02643 0.903247 3.12319 0 2.01322 0C0.903247 0.000406136 0 0.903247 0 2.01322ZM3.05171 2.01322C3.05171 2.58587 2.58587 3.0513 2.01322 3.0513C1.44057 3.0513 0.975133 2.58587 0.975133 2.01322C0.975133 1.44057 1.44057 0.975133 2.01322 0.975133C2.58587 0.975133 3.05171 1.44057 3.05171 2.01322Z" transform="translate(5.07101 13.2591)" fill="black"/>
<path d="M2.82671 0C1.26796 0 0 1.26836 0 2.82671C0 4.38505 1.26836 5.65341 2.82671 5.65341C4.38505 5.65341 5.65342 4.38546 5.65342 2.82671C5.65342 1.26796 4.38546 0 2.82671 0ZM2.82671 4.43501C1.93971 4.43501 1.21841 3.71371 1.21841 2.82671C1.21841 1.93971 1.94011 1.21841 2.82671 1.21841C3.7133 1.21841 4.43501 1.94011 4.43501 2.82671C4.43501 3.7133 3.71371 4.43501 2.82671 4.43501Z" transform="translate(11.9164 19.6091)" fill="black"/>
<path d="M2.82671 0C1.26796 0 0 1.26796 0 2.82671C0 4.38546 1.26836 5.65341 2.82671 5.65341C4.38505 5.65341 5.65342 4.38505 5.65342 2.82671C5.65342 1.26836 4.38546 0 2.82671 0ZM2.82671 4.43501C1.93971 4.43501 1.21841 3.7133 1.21841 2.82671C1.21841 1.94011 1.94011 1.21841 2.82671 1.21841C3.7133 1.21841 4.43501 1.93971 4.43501 2.82671C4.43501 3.71371 3.71371 4.43501 2.82671 4.43501Z" transform="translate(11.9164 26.7725)" fill="black"/>
<path d="M2.82671 0C1.26796 0 0 1.26836 0 2.82671C0 4.38505 1.26836 5.65341 2.82671 5.65341C4.38505 5.65341 5.65341 4.38505 5.65341 2.82671C5.65341 1.26836 4.38546 0 2.82671 0ZM2.82671 4.43541C1.93971 4.43541 1.21841 3.71371 1.21841 2.82711C1.21841 1.94052 1.94011 1.21881 2.82671 1.21881C3.7133 1.21881 4.43501 1.94052 4.43501 2.82711C4.43501 3.71371 3.71371 4.43541 2.82671 4.43541Z" transform="translate(19.1631 12.4456)" fill="black"/>
<path d="M2.82671 0C1.26796 0 0 1.26836 0 2.82671C0 4.38505 1.26836 5.65341 2.82671 5.65341C4.38505 5.65341 5.65341 4.38546 5.65341 2.82671C5.65341 1.26796 4.38546 0 2.82671 0ZM2.82671 4.43501C1.93971 4.43501 1.21841 3.71371 1.21841 2.82671C1.21841 1.93971 1.94011 1.21841 2.82671 1.21841C3.7133 1.21841 4.43501 1.94011 4.43501 2.82671C4.43501 3.7133 3.71371 4.43501 2.82671 4.43501Z" transform="translate(19.1631 19.6091)" fill="black"/>
<path d="M2.82671 0C1.26796 0 0 1.26796 0 2.82671C0 4.38546 1.26836 5.65341 2.82671 5.65341C4.38505 5.65341 5.65341 4.38505 5.65341 2.82671C5.65341 1.26836 4.38546 0 2.82671 0ZM2.82671 4.43501C1.93971 4.43501 1.21841 3.7133 1.21841 2.82671C1.21841 1.94011 1.94011 1.21841 2.82671 1.21841C3.7133 1.21841 4.43501 1.93971 4.43501 2.82671C4.43501 3.71371 3.71371 4.43501 2.82671 4.43501Z" transform="translate(19.1631 26.7725)" fill="black"/>
<path d="M2.82671 0C1.26796 0 0 1.26836 0 2.82671C0 4.38505 1.26836 5.65341 2.82671 5.65341C4.38505 5.65341 5.65341 4.38505 5.65341 2.82671C5.65341 1.26836 4.38546 0 2.82671 0ZM2.82671 4.43541C1.93971 4.43541 1.21841 3.71371 1.21841 2.82711C1.21841 1.94052 1.94011 1.21881 2.82671 1.21881C3.7133 1.21881 4.43501 1.94052 4.43501 2.82711C4.43501 3.71371 3.7133 4.43541 2.82671 4.43541Z" transform="translate(26.4098 12.4456)" fill="black"/>
<path d="M2.82671 0C1.26796 0 0 1.26836 0 2.82671C0 4.38505 1.26836 5.65341 2.82671 5.65341C4.38505 5.65341 5.65341 4.38546 5.65341 2.82671C5.65341 1.26796 4.38546 0 2.82671 0ZM2.82671 4.43501C1.93971 4.43501 1.21841 3.71371 1.21841 2.82671C1.21841 1.93971 1.94011 1.21841 2.82671 1.21841C3.7133 1.21841 4.43501 1.94011 4.43501 2.82671C4.43501 3.7133 3.7133 4.43501 2.82671 4.43501Z" transform="translate(26.4098 19.6091)" fill="black"/>
<path d="M2.82671 0C1.26796 0 0 1.26796 0 2.82671C0 4.38546 1.26836 5.65341 2.82671 5.65341C4.38505 5.65341 5.65341 4.38505 5.65341 2.82671C5.65341 1.26836 4.38546 0 2.82671 0ZM2.82671 4.43501C1.93971 4.43501 1.21841 3.7133 1.21841 2.82671C1.21841 1.94011 1.94011 1.21841 2.82671 1.21841C3.7133 1.21841 4.43501 1.93971 4.43501 2.82671C4.43501 3.71371 3.7133 4.43501 2.82671 4.43501Z" transform="translate(26.4098 26.7725)" fill="black"/>
<path d="M4.36393 2.49733H3.35996V0.527977C3.35996 0.236371 3.12359 0 2.83199 0C2.54038 0 2.30401 0.236371 2.30401 0.527977V2.49733H1.30004C0.583212 2.49733 0 3.08054 0 3.79737V4.77169C0 5.48852 0.583212 6.07174 1.30004 6.07174H2.30401V12.1268C2.30401 12.4184 2.54038 12.6548 2.83199 12.6548C3.12359 12.6548 3.35996 12.4184 3.35996 12.1268V6.07174H4.36393C5.08076 6.07174 5.66398 5.48852 5.66398 4.77169V3.79737C5.66438 3.08054 5.08076 2.49733 4.36393 2.49733ZM4.44597 4.77169C4.44597 4.81677 4.40942 4.85333 4.36434 4.85333H1.30085C1.25577 4.85333 1.21922 4.81677 1.21922 4.77169V3.79737C1.21922 3.75229 1.25577 3.71574 1.30085 3.71574H4.36434C4.40942 3.71574 4.44597 3.75229 4.44597 3.79737V4.77169Z" transform="translate(4.25183 19.2841)" fill="black"/>
<path d="M0.609204 7.37218H8.20233C8.53901 7.37218 8.81153 7.09967 8.81153 6.76298V0.609204C8.81153 0.272517 8.53901 0 8.20233 0H0.609204C0.272517 0 0 0.272517 0 0.609204V6.76298C0 7.09967 0.272923 7.37218 0.609204 7.37218ZM1.21841 1.21841H7.59312V6.15378H1.21841V1.21841Z" transform="translate(4.25226 3.14145)" fill="black"/>
<path d="M33.1342 0H3.41804C1.53316 0 0 1.53357 0 3.41804V31.582C0 33.4668 1.53316 35 3.41804 35H33.1342C35.0191 35 36.5523 33.4668 36.5523 31.582V3.41804C36.5523 1.53357 35.0191 0 33.1342 0ZM34.9277 31.582C34.9277 32.5709 34.1232 33.3755 33.1342 33.3755H3.41804C2.4291 33.3755 1.62454 32.5709 1.62454 31.582V3.41804C1.62454 2.4291 2.4291 1.62454 3.41804 1.62454H33.1342C34.1232 1.62454 34.9277 2.4291 34.9277 3.41804V31.582Z" fill="black"/>
</svg>
