<svg width="41" height="40" viewBox="0 0 41 40" fill="none" xmlns="http://www.w3.org/2000/svg">
<path d="M1.52494 0.261545C1.17617 -0.087096 0.610457 -0.0872245 0.261688 0.261417C-0.0872082 0.610313 -0.0872081 1.1759 0.261561 1.52467L5.14688 6.41011C5.32132 6.58456 5.54988 6.67185 5.77856 6.67185C6.00712 6.67185 6.23581 6.58456 6.41013 6.41024C6.75902 6.06134 6.75902 5.49576 6.41025 5.14699L1.52494 0.261545Z" transform="translate(6.72473 26.5916)" fill="white"/>
<path d="M1.52494 0.261592C1.1763 -0.0871768 0.610585 -0.0871757 0.261688 0.261465C-0.0872082 0.610362 -0.0872081 1.17595 0.261561 1.52472L2.6302 3.89348C2.80465 4.06793 3.03321 4.15522 3.26189 4.15522C3.49045 4.15522 3.71913 4.06793 3.89345 3.89361C4.24235 3.54471 4.24235 2.97913 3.89358 2.63036L1.52494 0.261592Z" transform="translate(11.7274 24.1058)" fill="white"/>
<path d="M39.897 2.8433C39.697 1.9731 39.4698 1.40599 39.2222 1.15867C38.8945 0.83083 38.488 0.650257 38.0779 0.650257C37.8686 0.650257 37.6656 0.695815 37.4744 0.785527C37.2749 0.878941 37.0594 0.983967 36.8329 1.09716L35.9974 0.261545C35.6488 -0.0870965 35.083 -0.0872241 34.7341 0.261417C34.3852 0.610186 34.3852 1.1759 34.734 1.52467L35.1731 1.96379C34.7831 2.17384 34.3901 2.38912 34.0092 2.6002L33.5144 2.10531C33.1655 1.75654 32.5999 1.75654 32.251 2.10531C31.9023 2.45421 31.9023 3.01979 32.251 3.36869L32.3915 3.50919C31.6275 3.94397 31.0918 4.25624 31.0317 4.29146C30.9653 4.33026 30.9044 4.37722 30.8501 4.43158C30.4259 4.85603 30.2959 5.4664 30.4554 6.01553L19.5418 16.9291C19.4673 16.8932 19.3935 16.8581 19.3213 16.8242C18.8486 16.6012 18.4404 16.4087 18.0556 16.0239C17.7125 15.6807 18.5962 14.2496 19.0711 13.4806C19.8995 12.139 20.7562 10.7517 19.7701 9.76559C19.5836 9.57902 19.2497 9.35659 18.719 9.35659C17.3157 9.35659 15.3708 10.9974 14.9645 11.4038C13.4032 12.965 12.7738 14.1833 12.165 15.3616C11.6291 16.3988 11.1229 17.3787 9.9237 18.5778C9.02887 19.4727 7.85406 19.918 6.61021 20.3897C5.17813 20.9327 3.69742 21.4941 2.4209 22.7705C-3.10172 28.2932 2.27325 33.6684 4.29657 35.692C6.3024 37.6977 8.99582 40.0001 12.0458 40C13.8638 39.9999 15.6041 39.1815 17.2181 37.5673C18.4944 36.2909 19.0559 34.8102 19.5989 33.3781C20.0704 32.1343 20.5159 30.9594 21.4106 30.0647C22.2765 29.1988 22.9542 28.8807 23.7388 28.5125C24.554 28.1299 25.4779 27.6962 26.5574 26.6169C29.2203 23.9538 29.0362 22.6518 28.4127 22.0283C28.0782 21.6938 27.6326 21.5243 27.0882 21.5243C26.4725 21.5243 25.7985 21.741 25.0846 21.9706C24.3758 22.1984 23.6428 22.4342 23.0333 22.4342C22.631 22.4341 22.3507 22.3335 22.1254 22.1079C21.9729 21.9554 21.8675 21.8274 21.796 21.7099L33.9718 9.5341C34.1201 9.57736 34.2749 9.60058 34.433 9.60058C34.8595 9.60058 35.2586 9.43647 35.5571 9.13824L39.7219 4.9733C40.1106 4.58421 40.1599 3.98698 39.897 2.8433ZM31.5724 7.42515L32.563 8.41595L21.8167 19.1623C21.7045 18.7829 21.4749 18.3744 21.0491 17.9487L21.049 17.9486L31.5724 7.42515ZM23.0332 24.2209C23.0333 24.2209 23.0332 24.2209 23.0332 24.2209C23.9229 24.2209 24.8307 23.9291 25.6314 23.6714C26.0924 23.5233 26.5666 23.3708 26.9057 23.3248C26.6651 23.7904 26.0697 24.5777 25.2939 25.3535C24.4356 26.2118 23.7607 26.5284 22.9795 26.8951C22.1614 27.2792 21.234 27.7144 20.147 28.8014C18.981 29.9675 18.4458 31.3793 17.928 32.7446C17.43 34.0582 16.9596 35.299 15.9544 36.304C14.6698 37.5887 13.3911 38.2133 12.0453 38.2134C9.65137 38.2134 7.32166 36.1907 5.55969 34.4288C4.21298 33.082 2.59178 31.2914 2.00284 29.3818C1.42117 27.496 1.97106 25.7467 3.68389 24.0338C4.68911 23.0286 5.9299 22.5582 7.2433 22.0602C8.60864 21.5424 10.0207 21.0071 11.1867 19.8411C12.5823 18.4454 13.1768 17.2946 13.752 16.1815C14.3232 15.0761 14.8626 14.0318 16.2273 12.667C16.7623 12.1321 17.6808 11.5218 18.281 11.2661C18.0989 11.6539 17.7734 12.1811 17.5505 12.5418C16.6639 13.9777 15.4493 15.9444 16.792 17.2872C17.3966 17.8917 18.014 18.183 18.5588 18.4399C19.0208 18.6579 19.4198 18.8461 19.7856 19.212C20.2011 19.6275 20.1613 19.7885 20.0296 20.3221C19.8547 21.0302 19.5906 22.1002 20.8616 23.3714C21.4255 23.9349 22.156 24.2208 23.0332 24.2209ZM34.4211 7.74738L32.297 5.62311C33.3067 5.0403 36.1776 3.39829 37.9582 2.53422C38.0881 2.91298 38.242 3.56151 38.2696 3.89892L34.4211 7.74738Z" fill="white"/>
</svg>
