<svg xmlns="http://www.w3.org/2000/svg" viewBox="0 0 40 40"><title>guitar-2</title><path d="M8.42,27.47h0a0.77,0.77,0,0,0-1.09,0h0a0.77,0.77,0,0,0,0,1.09l6.11,6.11a0.77,0.77,0,0,0,1.09,0h0a0.77,0.77,0,0,0,0-1.09Z" transform="translate(-1 -1)"/><path d="M40.94,5.6A3.81,3.81,0,0,0,39.8,2.2,3.81,3.81,0,0,0,36.4,1.06a0.65,0.65,0,0,0-.31.17l-0.25.25-0.15-.15a0.65,0.65,0,0,0-.91.91l0.15,0.15-0.69.69-0.15-.15a0.65,0.65,0,0,0-.91.91L33.33,4l-0.69.69L32.5,4.52a0.65,0.65,0,1,0-.91.91l0.28,0.28-1,1.93L24,14.33c-1.42-1.1-4.23-2.69-7.16-1.12a5.84,5.84,0,0,0-2.93,3.54,4.82,4.82,0,0,1-1.67,2.47,6.48,6.48,0,0,1-2.29.7c-2.45.49-5.81,1.16-8,5.24C-0.75,30,3.15,34.73,5,36.54L5.47,37c1.37,1.37,4.42,4,7.95,4a7.11,7.11,0,0,0,3.43-.89c4.08-2.21,4.75-5.57,5.24-8a6.48,6.48,0,0,1,.7-2.29,4.82,4.82,0,0,1,2.47-1.67,5.84,5.84,0,0,0,3.54-2.93c1.57-2.93,0-5.74-1.12-7.16l6.69-6.95,1.93-1,0.28,0.28a0.65,0.65,0,0,0,.91-0.91l-0.15-.15L38,8.66l0.15,0.15a0.65,0.65,0,0,0,.91-0.91l-0.15-.15,0.69-.69,0.15,0.15a0.65,0.65,0,0,0,.91-0.91l-0.15-.15,0.25-.25A0.65,0.65,0,0,0,40.94,5.6Zm-13.29,19a4.58,4.58,0,0,1-2.87,2.34,6.09,6.09,0,0,0-3,2.1,7.11,7.11,0,0,0-.93,2.8c-0.46,2.32-1,5.22-4.59,7.13C12.12,41.2,8,37.73,6.38,36.14l-0.51-.51C4.27,34,.8,29.87,3,25.77c1.92-3.55,4.81-4.12,7.14-4.59a7.12,7.12,0,0,0,2.8-.93,6.1,6.1,0,0,0,2.1-3,4.58,4.58,0,0,1,2.34-2.87c2.19-1.17,4.39,0,5.61.89l-4.18,4H18.64a4.1,4.1,0,1,0,4.1,4.11c0-.06,0-0.13,0-0.19l4-4.18C27.67,20.21,28.83,22.41,27.66,24.6Zm-8.66-4A2.8,2.8,0,0,1,21.43,23v0a2.88,2.88,0,0,1,0,.34,2.81,2.81,0,1,1-2.81-2.81l0.34,0h0Zm3.39,1.11a4.09,4.09,0,0,0-2.06-2.06L31.42,8.93l1.65,1.65ZM39.71,5.15l-0.55.55h0l-1.6,1.6h0L36,8.82l-1.94,1L32.21,7.9l1-1.94,3.67-3.68a2.61,2.61,0,0,1,2,.82A2.61,2.61,0,0,1,39.71,5.15Z" transform="translate(-1 -1)"/></svg>