<svg width="35" height="29" viewBox="0 0 35 29" fill="none" xmlns="http://www.w3.org/2000/svg">
<path d="M34.2197 0H28.685H23.9386H19.8733H15.1267H11.0614H6.31505H0.780255C0.349331 0 0 0.349331 0 0.780255V28.083C0 28.514 0.349331 28.8633 0.780255 28.8633H34.2197C34.6507 28.8633 35 28.514 35 28.083V0.780255C35 0.349331 34.6507 0 34.2197 0ZM27.9047 1.56051V16.4183H24.7188V1.56051H27.9047ZM11.0614 17.9789C11.4924 17.9789 11.8417 17.6295 11.8417 17.1986V1.56051H14.3464V17.1986C14.3464 17.6295 14.6958 17.9789 15.1267 17.9789H16.7197V27.3028H9.4685V17.9789H11.0614ZM18.2803 17.9789H19.8733C20.3042 17.9789 20.6536 17.6295 20.6536 17.1986V1.56051H23.1583V17.1986C23.1583 17.6295 23.5076 17.9789 23.9386 17.9789H25.5315V27.3028H18.2803V17.9789ZM19.0931 1.56051V16.4183H15.9069V1.56051H19.0931ZM10.2812 1.56051V16.4183H7.0953V1.56051H10.2812ZM1.56051 1.56051H5.53479V17.1986C5.53479 17.6295 5.88412 17.9789 6.31505 17.9789H7.90799V27.3028H1.56051V1.56051ZM33.4395 27.3029H27.092V17.979H28.685C29.1159 17.979 29.4652 17.6296 29.4652 17.1987V1.56051H33.4395V27.3029Z" fill="white"/>
</svg>
