<svg width="37" height="37" viewBox="0 0 37 37" fill="none" xmlns="http://www.w3.org/2000/svg">
<path d="M12.662 -0.05C5.65252 -0.05 -0.05 5.65252 -0.05 12.662C-0.05 19.6715 5.65252 25.374 12.662 25.374C19.6715 25.374 25.374 19.6715 25.374 12.662C25.374 5.65252 19.6715 -0.05 12.662 -0.05ZM12.662 24.1401C6.33298 24.1401 1.18391 18.991 1.18391 12.662C1.18391 6.33298 6.33298 1.18391 12.662 1.18391C18.991 1.18391 24.1401 6.33298 24.1401 12.662C24.1401 18.991 18.991 24.1401 12.662 24.1401Z" transform="translate(5.83801 5.83853)" fill="white" stroke="white" stroke-width="0.1"/>
<path d="M35.05 17.5005C35.05 15.7757 33.8543 14.3148 32.2089 13.9483C31.8346 12.3983 31.2212 10.9407 30.4097 9.61678C31.3172 8.19382 31.1298 6.31035 29.9101 5.09067C28.689 3.86949 26.8074 3.68299 25.3841 4.59109C24.0604 3.77966 22.6029 3.16629 21.053 2.79183C20.6866 1.14673 19.2236 -0.05 17.5005 -0.05C15.7756 -0.05 14.3145 1.14592 13.9482 2.79152C12.3983 3.16577 10.9408 3.77906 9.61701 4.59034C8.1939 3.68269 6.31035 3.87009 5.09067 5.08992C3.86956 6.31102 3.68299 8.19249 4.59094 9.61573C3.77936 10.9396 3.16584 12.3971 2.79137 13.9471C1.14651 14.3137 -0.05 15.7765 -0.05 17.4995C-0.05 19.2242 1.14554 20.685 2.79076 21.0516C3.16501 22.6019 3.77838 24.0597 4.58989 25.3838C3.68285 26.8068 3.87031 28.6898 5.08991 29.9094C5.79882 30.6183 6.7302 30.9787 7.66545 30.9787C8.34089 30.9787 9.01805 30.7899 9.61481 30.4094C10.939 31.2212 12.3969 31.8349 13.9473 32.2094C14.3142 33.8538 15.7768 35.05 17.4995 35.05C19.2241 35.05 20.6847 33.8546 21.0515 32.2097C22.602 31.8353 24.0599 31.2218 25.3842 30.41C25.9808 30.7903 26.6579 30.9787 27.3334 30.9786C28.269 30.9786 29.2012 30.6183 29.9093 29.9101C31.1303 28.6891 31.3169 26.808 30.4094 25.3849C31.2209 24.0609 31.8345 22.6031 32.2089 21.0529C33.8536 20.6861 35.05 19.2234 35.05 17.5005ZM33.8161 17.5005C33.8161 18.4413 33.2768 19.2642 32.477 19.659C32.5782 18.9538 32.631 18.2332 32.631 17.5005C32.631 16.7677 32.5781 16.047 32.4769 15.3417C33.277 15.7361 33.8161 16.5586 33.8161 17.5005ZM17.5 31.3976C9.83714 31.3976 3.60292 25.1634 3.60292 17.5005C3.60292 9.83767 9.83714 3.60345 17.5 3.60345C25.1629 3.60345 31.3971 9.83767 31.3971 17.5005C31.3971 25.1634 25.1629 31.3976 17.5 31.3976ZM29.0376 5.96321C29.705 6.63062 29.9047 7.5982 29.614 8.44501C28.7454 7.28593 27.7146 6.25524 26.5556 5.38659C27.4022 5.0954 28.3692 5.29482 29.0376 5.96321ZM17.5005 1.18391C18.4415 1.18391 19.2647 1.72352 19.6594 2.5237C18.9539 2.42239 18.2331 2.36954 17.5 2.36954C16.7672 2.36954 16.0466 2.42239 15.3414 2.52357C15.7357 1.72327 16.5584 1.18391 17.5005 1.18391ZM5.96321 5.96238C6.63077 5.29496 7.59835 5.09526 8.44508 5.38601C7.286 6.2546 6.25524 7.28522 5.38651 8.44423C5.0954 7.59768 5.2949 6.63069 5.96321 5.96238ZM1.18391 17.4995C1.18391 16.5587 1.7233 15.7357 2.52324 15.341C2.42193 16.0464 2.36901 16.7674 2.36901 17.5005C2.36901 18.233 2.42179 18.9533 2.52295 19.6583C1.7229 19.2639 1.18391 18.4413 1.18391 17.4995ZM5.96238 29.0368C5.29512 28.3695 5.09542 27.4023 5.38573 26.5558C6.25416 27.7146 7.2846 28.7452 8.44335 29.6138C7.59699 29.9044 6.63045 29.7049 5.96238 29.0368ZM17.4995 33.8161C16.559 33.8161 15.7361 33.277 15.3413 32.4774C16.0465 32.5787 16.7673 32.6315 17.5001 32.6315C18.2326 32.6315 18.953 32.5787 19.6581 32.4776C19.2635 33.2773 18.4412 33.8161 17.4995 33.8161ZM29.0368 29.0376C28.3695 29.7048 27.4024 29.9046 26.5559 29.6143C27.7148 28.7458 28.7453 27.7153 29.6138 26.5565C29.9045 27.4029 29.7049 28.3695 29.0368 29.0376Z" transform="translate(1 1)" fill="white" stroke="white" stroke-width="0.1"/>
</svg>
