<svg xmlns="http://www.w3.org/2000/svg" viewBox="0 0 35.1 35.1"><title>tambourine-2</title><path d="M18.5,5.84A12.66,12.66,0,1,0,31.16,18.5,12.68,12.68,0,0,0,18.5,5.84ZM18.5,30A11.53,11.53,0,1,1,30,18.5,11.54,11.54,0,0,1,18.5,30Z" transform="translate(-0.95 -0.95)"/><path d="M33.21,14.95a15,15,0,0,0-1.8-4.33,3.64,3.64,0,0,0-5-5,15,15,0,0,0-4.33-1.8,3.64,3.64,0,0,0-7.1,0,15,15,0,0,0-4.33,1.8,3.64,3.64,0,0,0-5,5,15,15,0,0,0-1.8,4.33,3.64,3.64,0,0,0,0,7.1,15,15,0,0,0,1.8,4.33,3.64,3.64,0,0,0,5,5,15,15,0,0,0,4.33,1.8,3.64,3.64,0,0,0,7.1,0,15,15,0,0,0,4.33-1.8,3.64,3.64,0,0,0,5-5,15,15,0,0,0,1.8-4.33A3.64,3.64,0,0,0,33.21,14.95ZM3.52,20.66a2.41,2.41,0,0,1,0-4.32A15.2,15.2,0,0,0,3.52,20.66ZM30,7a2.4,2.4,0,0,1,.58,2.48,15.26,15.26,0,0,0-3.06-3.06A2.4,2.4,0,0,1,30,7ZM18.5,2.18a2.4,2.4,0,0,1,2.16,1.34,15.2,15.2,0,0,0-4.32,0A2.4,2.4,0,0,1,18.5,2.18ZM7,7a2.4,2.4,0,0,1,2.48-.58A15.26,15.26,0,0,0,6.39,9.44,2.4,2.4,0,0,1,7,7ZM7,30a2.4,2.4,0,0,1-.58-2.48,15.26,15.26,0,0,0,3.06,3.06A2.4,2.4,0,0,1,7,30ZM18.5,34.82a2.4,2.4,0,0,1-2.16-1.34,15.2,15.2,0,0,0,4.32,0A2.4,2.4,0,0,1,18.5,34.82ZM30,30a2.4,2.4,0,0,1-2.48.58,15.26,15.26,0,0,0,3.06-3.06A2.4,2.4,0,0,1,30,30ZM18.5,32.4A13.9,13.9,0,1,1,32.4,18.5,13.91,13.91,0,0,1,18.5,32.4Zm15-11.74a15.2,15.2,0,0,0,0-4.32A2.41,2.41,0,0,1,33.48,20.66Z" transform="translate(-0.95 -0.95)"/></svg>